<svg version="1.0" xmlns="http://www.w3.org/2000/svg" width="800" height="800" viewBox="0 0 600 600"><path d="M144.7 177.7c-.4.3-.7 3.7-.7 7.5v6.8h344v180h15V177H324.2c-98.4 0-179.2.3-179.5.7z"/><path d="M119 209.5v7.5h344v180h15V202H119v7.5z"/><path d="M101 321.5V415h351V228H101v93.5zm336.8.2-.3 78.8-160.7.3-160.8.2V243h322l-.2 78.7z"/><path d="M125 321.5V392h121.5l-6.5-3.6c-18.1-10.1-31-25.8-37-44.9-3.4-10.8-3.9-28.5-1.1-39.5 5.3-21.6 20.2-40.7 38.8-50 2.4-1.2 4.3-2.3 4.3-2.6 0-.2-27-.4-60-.4h-60v70.5zM308.4 252.3c16.4 10.3 25.8 19 32.5 30.2 8.2 13.7 12.3 32.8 10.1 47.7-3.8 26.4-17.3 46-40.4 58.4l-6.1 3.4H428V251l-60.7.1c-47.5 0-60.4.3-58.9 1.2z"/><path d="M269 272.5c0 4.5-.4 6.5-1.2 6.5-2.4 0-13.3 5.7-15.5 8.1-3.3 3.6-6.3 10.9-6.3 15.4 0 12.5 6.9 19.3 26.8 26.5 10 3.6 13.9 8.5 11.6 14.5-2.1 5.4-16.1 6.5-27.9 2.1-3.8-1.4-7-2.4-7.1-2.3-.1.1-1.1 3.5-2.2 7.5l-2 7.3 2.2 1.4c2.7 1.7 13.4 4.5 17.5 4.5h3.1v13h14v-13.5l5.8-1.7c15.2-4.5 22.5-20.7 15.6-34.6-3.1-6.2-8.4-10.2-19-14.3-4-1.6-9.1-3.7-11.3-4.9-6.6-3.3-7.9-8-3.5-12.1 2.3-2.1 3.4-2.4 10.7-2.3 6.1 0 9.4.6 12.9 2.1 2.6 1.2 5 1.9 5.2 1.5.6-1 3.6-12.7 3.6-14 0-1.2-7.6-3.8-14.4-4.9l-4.9-.8-.1-5.5-.1-5.5-6.7-.3-6.8-.3v6.6z"/></svg>