<svg version="1.0" xmlns="http://www.w3.org/2000/svg" width="800" height="800" viewBox="0 0 600 600"><path d="M220 133c-43.2 13.1-79.2 24.3-80 24.8-3.9 2.3-8.2 45.1-8.2 80.2.1 86.2 23 152 68.6 197.6 17.7 17.6 32.9 28.3 56.1 39.5C270 481.7 295.6 491 300 491c4.4 0 30-9.3 43.5-15.9 23.3-11.2 38.4-21.9 56.1-39.5 38.2-38.3 59.5-88.2 67-157.3 2.1-19.9 2.1-61.4 0-82.8-2.2-21.1-4.5-35.7-5.9-37.2-1.2-1.1-158.9-49.4-161.1-49.2-.6 0-36.4 10.8-79.6 23.9zm157.6 8.1c41.7 12.7 76 23.2 76.2 23.4.5.5 2.3 12.2 3.8 25.5 2.2 19.2 2.9 59.2 1.5 77.3-9 111.9-57.3 181.9-145.6 211.1-5.9 2-12 3.6-13.5 3.6-4.2 0-28.1-8.5-40.5-14.4-20.9-10-38-22-53.7-37.7-35.5-35.6-56.3-84.4-64-150.4-1.7-14.6-1.7-68 0-84.5 1.3-12.1 3.9-30 4.4-30.5.8-.8 151.6-46.4 153.4-46.4 1.1-.1 36.2 10.3 78 23z"/><path d="M229.5 155.1c-37.9 11.6-69.1 21.2-69.4 21.4-.9.9-3.1 16.5-4.6 31.8-1.9 20-1.9 51.6 0 70.9 8.7 90.3 50.3 152.1 120.5 179.1 6.3 2.5 14.3 5.3 17.8 6.2 5.9 1.7 6.5 1.7 12.5 0 8-2.2 26.8-9.5 33.8-13 60.9-30.9 96.4-89.4 104.4-172.3 1.9-19.3 1.9-50.9 0-70.9-1.5-15.2-3.7-30.9-4.6-31.7-.6-.7-139-42.6-140.3-42.6-.6.1-32.1 9.6-70.1 21.1zm169.1 70.4c4 1.7 6.9 7.2 5.9 11.4-.8 3.3-122.7 125.7-127 127.6-6.3 2.7-7.2 2.1-40.2-30.8-17.2-17.1-32-32.6-32.9-34.5-1.3-2.9-1.4-4.2-.5-7.2 1.4-4.7 4.8-7 10.3-7 4.2 0 4.4.1 32 27.7l27.8 27.8 57.8-57.7c31.7-31.7 58.4-57.8 59.2-58.1 2.5-.9 3.9-.8 7.6.8z"/></svg>