
<svg version="1.0" xmlns="http://www.w3.org/2000/svg"
 width="600.000000pt" height="600.000000pt" viewBox="0 0 600.000000 600.000000"
 preserveAspectRatio="xMidYMid meet">

<g transform="translate(0.000000,600.000000) scale(0.100000,-0.100000)"
fill="#000000" stroke="none">
<path d="M1447 4223c3 4 811 7 1795 7H5030V3255 2280h-75-75v900 900H3160 1440v68c0 38 3 72 7 75Z"/>
<path d="M1190 3905 l0 -75 1720 0 1720 0 0 -900 0 -900 75 0 75 0 0 975 0
975 -1795 0 -1795 0 0 -75z"/>
<path d="M1010 2785V1850H2765 4520v935 935H2765 1010V2785zm3368-2-3-788-1607-3-1608-2v790 790H2770 4380l-2-787z"/>

<path d="M1250 2785v705h600c330 0 600-2 600-4 0-3-19-14-43-26-186-93-335-284-388-500-28-110-23-287 11-395 60-191 189-348 370-449l65-36H1858 1250v705Z"/>

<path d="M3084 3477c164-103 258-190 325-302 82-137 123-328 101-477-38-264-173-460-404-584l-61-34h618 617v705 705l-607-1c-475 0-604-3-589-12z"/>

<path d="M2690 3275v66l68-3 67-3 1-55 1-55 49-8c68-11 144-37 144-49 0-13-30-130-36-140-2-4-26 3-52 15-35 15-68 21-129 21-73 1-84-2-107-23-44-41-31-88 35-121 22-12 73-33 113-49 106-41 159-81 190-143 69-139-4-301-156-346l-58-17v-67-68h-70-70v65 65h-31c-41 0-148 28-175 45l-22 14 20 73c11 40 21 74 22 75s33-9 71-23c118-44 258-33 279 21 23 60-16 109-116 145-199 72-268 140-268 265 0 45 30 118 63 154 22 24 131 81 155 81 8 0 12 20 12 65Z"/>
</g>
</svg>
