
<svg version="1.0" xmlns="http://www.w3.org/2000/svg"
 width="600.000000pt" height="600.000000pt" viewBox="0 0 600.000000 600.000000"
 preserveAspectRatio="xMidYMid meet">

<g transform="translate(0.000000,600.000000) scale(0.100000,-0.100000)"
fill="#000000" stroke="none">
<path d="M1481 4649c-85-14-170-61-235-128-69-74-104-147-116-243-11-95-11-1411 0-1506 22-183 167-337 350-372 29-5 117-10 196-10h144v-24c0-93-101-363-171-457-57-76-51-102 27-114 52-9 131 18 299 100 228 111 313 177 503 388l97 108 540 1c297 0 572 4 610 9 136 17 276 113 336 230 49 96 49 104 49 894 0 633-2 749-15 800-45 171-182 296-355 324-81 13-2180 13-2259 0zm1935-904c85-25 144-107 144-199 0-58-14-93-53-135-107-113-283-85-348 54-26 56-24 111 7 173 27 55 64 87 123 108 47 17 67 17 127-1zm-688-34c143-73 152-268 16-359-46-32-53-34-120-30-92 4-140 34-178 109-32 66-33 118-2 185 50 108 176 150 284 95zm-733-20c148-67 164-269 28-364-78-56-180-47-256 22-49 44-67 85-67 153 0 153 155 253 295 189z"/>
<path d="M4378 3189l2 744 84-5c106-7 175-37 252-110 68-64 110-144 124-236 7-45 10-306 8-768l-3-699-23-55c-67-163-204-257-384-263l-78-2v-75c0-66 6-88 44-183 25-60 52-119 60-132 38-57 6-79-103-73-62 4-92 12-162 45-48 22-113 59-146 81-86 58-196 180-237 263l-35 70-548-1c-338 0-570 4-603 10-63 12-126 50-142 85-10 23-3 33 101 144l113 120 691 3 692 3 67 34c82 41 153 113 194 196l29 60 3 744Z"/>
</g>
</svg>
