<svg version="1.0" xmlns="http://www.w3.org/2000/svg" width="800" height="800" viewBox="0 0 600 600">
<path d="M148.1 135.1c-8.5 1.4-17 6.1-23.5 12.8-6.9 7.4-10.4 14.7-11.6 24.3-1.1 9.5-1.1 141.1 0 150.6 2.2 18.3 16.7 33.7 35 37.2 2.9.5 11.7 1 19.6 1H182v2.4c0 9.3-10.1 36.3-17.1 45.7-5.7 7.6-5.1 10.2 2.7 11.4 5.2.9 13.1-1.8 29.9-10 22.8-11.1 31.3-17.7 50.3-38.8l9.7-10.8 54-.1c29.7 0 57.2-.4 61-.9 13.6-1.7 27.6-11.3 33.6-23 4.9-9.6 4.9-10.4 4.9-89.4 0-63.3-.2-74.9-1.5-80-4.5-17.1-18.2-29.6-35.5-32.4-8.1-1.3-218-1.3-225.9 0zm193.5 90.4c8.5 2.5 14.4 10.7 14.4 19.9 0 5.8-1.4 9.3-5.3 13.5-10.7 11.3-28.3 8.5-34.8-5.4-2.6-5.6-2.4-11.1.7-17.3 2.7-5.5 6.4-8.7 12.3-10.8 4.7-1.7 6.7-1.7 12.7.1zm-68.8 3.4c14.3 7.3 15.2 26.8 1.6 35.9-4.6 3.2-5.3 3.4-12 3-9.2-.4-14-3.4-17.8-10.9-3.2-6.6-3.3-11.8-.2-18.5 5-10.8 17.6-15 28.4-9.5zm-73.3 2c14.8 6.7 16.4 26.9 2.8 36.4-7.8 5.6-18 4.7-25.6-2.2-4.9-4.4-6.7-8.5-6.7-15.3 0-15.3 15.5-25.3 29.5-18.9z"/><path d="m437.8 281.1-.3 74.4-2.9 6c-4.1 8.3-11.2 15.5-19.4 19.6l-6.7 3.4-69.2.3-69.1.3-11.3 12c-10.4 11.1-11.1 12.1-10.1 14.4 1.6 3.5 7.9 7.3 14.2 8.5 3.3.6 26.5 1 60.3 1l54.8-.1 3.5 7c4.1 8.3 15.1 20.5 23.7 26.3 3.3 2.2 9.8 5.9 14.6 8.1 7 3.3 10 4.1 16.2 4.5 10.9.6 14.1-1.6 10.3-7.3-.8-1.3-3.5-7.2-6-13.2-3.8-9.5-4.4-11.7-4.4-18.3v-7.5l7.8-.2c18-.6 31.7-10 38.4-26.3l2.3-5.5.3-69.9c.2-46.2-.1-72.3-.8-76.8-1.4-9.2-5.6-17.2-12.4-23.6-7.7-7.3-14.6-10.3-25.2-11l-8.4-.5-.2 74.4z"/></svg>